<svg width="18" height="16" viewBox="0 0 18 16" fill="none" xmlns="http://www.w3.org/2000/svg">
<path d="M16.3636 14.4H18V16H0V14.4H1.63636V0.8C1.63636 0.587827 1.72256 0.384344 1.876 0.234315C2.02944 0.0842854 2.23755 0 2.45455 0H15.5455C15.7625 0 15.9706 0.0842854 16.124 0.234315C16.2774 0.384344 16.3636 0.587827 16.3636 0.8V14.4ZM5.72727 7.2V8.8H8.18182V7.2H5.72727ZM5.72727 4V5.6H8.18182V4H5.72727ZM5.72727 10.4V12H8.18182V10.4H5.72727ZM9.81818 10.4V12H12.2727V10.4H9.81818ZM9.81818 7.2V8.8H12.2727V7.2H9.81818ZM9.81818 4V5.6H12.2727V4H9.81818Z" fill="url(#paint0_linear_367_9016)"/>
<defs>
<linearGradient id="paint0_linear_367_9016" x1="9" y1="0" x2="9" y2="16" gradientUnits="userSpaceOnUse">
<stop stop-color="#4367E6"/>
<stop offset="1" stop-color="#1440DC"/>
</linearGradient>
</defs>
</svg>
