<svg width="32" height="28" viewBox="0 0 32 28" fill="none" xmlns="http://www.w3.org/2000/svg">
<path d="M30.1532 3.99339C29.0075 2.48804 27.389 1.41151 25.5577 0.936732C23.7265 0.461958 21.7888 0.616503 20.056 1.37554C18.5051 2.04483 17.1218 3.17325 16 4.67073C14.8782 3.16959 13.4949 2.04117 11.944 1.37554C10.2112 0.616503 8.27349 0.461958 6.44225 0.936732C4.61102 1.41151 2.99252 2.48804 1.84677 3.99339C0.638536 5.57654 0 7.55512 0 9.71457C0 12.8223 1.85336 16.2317 5.5081 19.8521C8.48622 22.8009 12.0055 25.2159 13.8376 26.3926C14.4832 26.8058 15.2336 27.0254 16 27.0254C16.7664 27.0254 17.5168 26.8058 18.1624 26.3926C19.993 25.2159 23.5138 22.8009 26.4919 19.8521C30.1466 16.2332 32 12.8223 32 9.71457C32 7.55512 31.3615 5.57654 30.1532 3.99339Z" fill="url(#paint0_linear_417_5337)"/>
<defs>
<linearGradient id="paint0_linear_417_5337" x1="6.5" y1="1" x2="16" y2="27.0254" gradientUnits="userSpaceOnUse">
<stop offset="0.296755" stop-color="#F9595F"/>
<stop offset="1" stop-color="#E10008"/>
</linearGradient>
</defs>
</svg>
