<svg width="19" height="22" viewBox="0 0 19 22" fill="none" xmlns="http://www.w3.org/2000/svg">
<path d="M14.5 2H17.5C17.7652 2 18.0196 2.10536 18.2071 2.29289C18.3946 2.48043 18.5 2.73478 18.5 3V21C18.5 21.2652 18.3946 21.5196 18.2071 21.7071C18.0196 21.8946 17.7652 22 17.5 22H1.5C1.23478 22 0.98043 21.8946 0.792893 21.7071C0.605357 21.5196 0.5 21.2652 0.5 21V3C0.5 2.73478 0.605357 2.48043 0.792893 2.29289C0.98043 2.10536 1.23478 2 1.5 2H4.5V0H6.5V2H12.5V0H14.5V2ZM14.5 4V6H12.5V4H6.5V6H4.5V4H2.5V20H16.5V4H14.5ZM4.5 8H14.5V10H4.5V8ZM4.5 12H14.5V14H4.5V12Z" fill="#3259E3"/>
</svg>
