<svg width="20" height="20" viewBox="0 0 20 20" fill="none" xmlns="http://www.w3.org/2000/svg">
<path d="M10 0C8.02221 0 6.0888 0.58649 4.44431 1.6853C2.79982 2.78412 1.51809 4.3459 0.761211 6.17316C0.00433283 8.00042 -0.193701 10.0111 0.192152 11.9509C0.578005 13.8907 1.53041 15.6725 2.92894 17.0711C4.32747 18.4696 6.1093 19.422 8.04912 19.8078C9.98893 20.1937 11.9996 19.9957 13.8269 19.2388C15.6541 18.4819 17.2159 17.2002 18.3147 15.5557C19.4136 13.9112 20 11.9778 20 10C20 7.34783 18.9465 4.80429 17.0711 2.92893C15.1957 1.05357 12.6522 0 10 0V0ZM14.5079 8.88552C13.6158 8.98421 12.8513 8.63158 12.0869 8.18158C12.0869 8.25526 12.1092 10.5395 12.0711 11.6289C12.0329 12.7487 11.6329 13.7342 10.7553 14.4697C8.89476 16.0316 6.25396 15.1882 5.6237 12.8C5.28159 11.4987 5.57896 10.3263 6.60002 9.39868C7.17502 8.87237 7.88423 8.63816 8.64476 8.54079C8.80791 8.51973 8.97239 8.51052 9.1487 8.49473V10.2632C8.92502 10.3184 8.6987 10.3671 8.47634 10.4329C8.32207 10.4774 8.17159 10.5342 8.02633 10.6026C7.82369 10.6938 7.64474 10.8303 7.50336 11.0018C7.36199 11.1732 7.26198 11.3749 7.21109 11.5911C7.16019 11.8074 7.15978 12.0325 7.20989 12.249C7.25999 12.4655 7.35927 12.6675 7.50002 12.8395C7.66927 13.0735 7.89948 13.2566 8.16558 13.3689C8.43168 13.4812 8.72348 13.5183 9.00923 13.4763C9.58423 13.4066 9.94476 13.0447 10.1579 12.525C10.3053 12.1137 10.3693 11.6771 10.3461 11.2408C10.3382 9.09342 10.3382 6.94737 10.3342 4.8C10.3361 4.77791 10.3391 4.75595 10.3434 4.73421H12.0606C12.2527 6.17105 12.9816 7.08158 14.5079 7.21052V8.88552Z" fill="#6F6C90"/>
</svg>
