<svg width="64" height="64" viewBox="0 0 64 64" fill="none" xmlns="http://www.w3.org/2000/svg">
<path d="M32 64C49.6731 64 64 49.6731 64 32C64 14.3269 49.6731 0 32 0C14.3269 0 0 14.3269 0 32C0 49.6731 14.3269 64 32 64Z" fill="#7584F2"/>
<path d="M38.2399 14.526L28.813 5.09912L19.3643 55.748L27.2674 63.6511C28.8119 63.8801 30.3918 64.0001 31.9998 64.0001C49.6729 64.0001 63.9997 49.6733 63.9997 32.0001C63.9997 27.7179 63.1565 23.6331 61.6304 19.9L46.8295 5.09912L38.2399 14.526Z" fill="#4253CE"/>
<path d="M26.1782 24.0241H37.8212L46.8296 5.09912H35.1866L26.1782 24.0241Z" fill="#D72878"/>
<path d="M23.6187 20.7661V31.28H26.1783V24.024L31.9999 22.8435V20.7661H23.6187Z" fill="#FFD400"/>
<path d="M32 20.7661V22.8435L37.8216 24.024V31.28H40.3812V20.7661H32Z" fill="#FDBA12"/>
<path d="M32.0002 11.7939L33.0755 18.6226L32.0002 24.0241H26.1788L17.1704 5.09912H28.8134L32.0002 11.7939Z" fill="#FF5F96"/>
<path d="M32 11.7939L37.8216 24.0242H32V11.7939Z" fill="#FF468C"/>
<path d="M37.0879 43.2797L31.9998 61.0304C22.1963 61.0304 14.249 53.0832 14.249 43.2797C14.249 33.4762 22.1963 25.5288 31.9998 25.5288L37.0879 43.2797Z" fill="#FFE473"/>
<path d="M49.7508 43.2797C49.7508 53.0832 41.8035 61.0304 32 61.0304V25.5288C41.8035 25.5288 49.7508 33.4762 49.7508 43.2797Z" fill="#FFD400"/>
<path d="M36.4122 43.2796L31.9998 58.6729C23.4983 58.6729 16.6064 51.781 16.6064 43.2795C16.6064 34.778 23.4983 27.8862 31.9998 27.8862L36.4122 43.2796Z" fill="#FFD400"/>
<path d="M47.3934 43.2796C47.3934 51.7811 40.5015 58.673 32 58.673V27.8862C40.5015 27.8862 47.3934 34.7781 47.3934 43.2796Z" fill="#FDBA12"/>
<path d="M31.9997 33.3345L33.8062 42.557L31.9997 46.6728L26.3264 50.7947L28.4934 44.1255L22.8203 40.0037H29.8327L31.9997 33.3345Z" fill="#FFE473"/>
<path d="M31.9995 33.3345L34.1665 40.0037H41.1789L35.5058 44.1255L37.6728 50.7947L31.9995 46.6728V33.3345Z" fill="#FFD400"/>
<path d="M31.9996 56.9681C31.6201 56.9681 31.237 56.9524 30.8608 56.9214L31.0148 55.0527C31.3401 55.0795 31.6713 55.0931 31.9996 55.0931L32.295 56.054L31.9996 56.9681Z" fill="#FFE473"/>
<path d="M28.8357 56.6L28.834 56.5997L29.2139 54.7637L28.8357 56.6Z" fill="#FFE473"/>
<path d="M28.8058 56.5935C28.0903 56.4224 27.3835 56.1913 26.7049 55.9064L27.4307 54.1775C28.0157 54.4232 28.625 54.6224 29.2419 54.7699L28.8058 56.5935ZM24.9257 54.9972L24.8565 54.9529L24.8539 54.9572C24.2277 54.5732 23.6274 54.135 23.07 53.6548L24.2938 52.2341C24.7753 52.6489 25.2935 53.0273 25.834 53.3588L25.3475 54.1535L25.9295 53.4259L25.3475 54.1535L24.9257 54.9972ZM21.6509 52.2359L22.306 51.5808L22.2877 51.5955L21.602 52.1832C21.123 51.6243 20.6864 51.023 20.3042 50.396L21.9052 49.42C22.2352 49.9613 22.6122 50.4804 23.0258 50.963L23.0249 50.9638L23.0468 50.9883L22.3147 51.574L21.6509 52.2359ZM22.3134 51.5734L22.2878 51.5953L22.3134 51.5734ZM19.3873 48.6029L19.3622 48.5423L19.36 48.5431C19.0768 47.8638 18.8474 47.1565 18.6783 46.4408L20.503 46.0095C20.6489 46.6264 20.8467 47.2361 21.0907 47.8218L20.2254 48.1825L20.2262 48.1822L20.2247 48.1828L20.2334 48.1799L19.3873 48.6029ZM18.3618 44.4456L18.3575 44.3865L18.3552 44.3867C18.3258 44.0204 18.3109 43.6479 18.311 43.2794C18.311 42.9135 18.3257 42.5435 18.3547 42.1799L20.2238 42.3285C20.1988 42.6429 20.186 42.9628 20.186 43.2795C20.186 43.5983 20.1988 43.9203 20.2242 44.2369L19.2983 44.3118H20.2272H19.2983L18.3618 44.4456ZM20.478 40.6386L19.5887 40.3422L18.6609 40.2084L19.5824 40.34L19.5757 40.3378L18.6765 40.1258C18.8455 39.4093 19.0747 38.7014 19.3575 38.022L21.0885 38.7429C20.8447 39.3284 20.6472 39.9385 20.5015 40.5561L20.4979 40.5553L20.478 40.6386ZM19.5824 40.3401L19.5895 40.3411L19.5757 40.3379L19.5824 40.3401ZM21.8339 37.2414L21.1063 36.6594L20.2627 36.2375L20.3054 36.1706L20.3012 36.168C20.6833 35.5406 21.1198 34.9391 21.5984 34.3801L23.0227 35.5998C22.6093 36.0824 22.2324 36.6018 21.9025 37.1434L21.1063 36.6593L21.8339 37.2414ZM24.2627 34.351L23.677 33.6189L23.015 32.9553L23.6702 33.6104L23.6558 33.5923L23.0658 32.908C23.6229 32.4276 24.2228 31.9893 24.8488 31.6051L25.8297 33.2032C25.2893 33.5348 24.7713 33.9134 24.2903 34.3282L24.2895 34.3273L24.2627 34.351ZM23.6703 33.6104L23.6784 33.6185L23.6559 33.5924L23.6703 33.6104ZM27.3578 32.4094L27.064 31.528L26.641 30.682L26.6989 30.658L26.698 30.6559C27.3763 30.3706 28.0829 30.1391 28.7983 29.9678L29.2352 31.7911C28.6187 31.9389 28.0095 32.1385 27.4249 32.3844L27.0642 31.5283L27.3578 32.4094ZM27.0613 31.52L27.0617 31.5208L27.061 31.5193L27.0613 31.52Z" fill="#FFE473"/>
<path d="M31.0148 31.5062L30.8608 29.6376C31.237 29.6066 31.6202 29.5908 31.9996 29.5908L32.2183 30.5486L31.9996 31.4658C31.6713 31.4658 31.3401 31.4794 31.0148 31.5062Z" fill="#FFE473"/>
<path d="M32.9847 31.5062C32.6595 31.4794 32.3282 31.4658 32 31.4658V29.5908C32.3795 29.5908 32.7626 29.6066 33.1387 29.6376L32.9847 31.5062Z" fill="#FFD400"/>
<path d="M34.7559 31.7888L35.194 29.9658L35.1957 29.9662L34.7559 31.7888Z" fill="#FFD400"/>
<path d="M35.2016 56.5912L34.7647 54.7678C35.3812 54.6201 35.9903 54.4205 36.5749 54.1746L36.9357 55.0307L36.6419 54.1493L36.9357 55.0307L37.3587 55.8767L37.3008 55.9007L37.3017 55.9028C36.6234 56.1882 35.9168 56.4198 35.2016 56.5912ZM36.9379 55.0381L36.9386 55.0396L36.9379 55.0381ZM39.1509 54.9537L38.1701 53.3557C38.7104 53.0241 39.2284 52.6455 39.7094 52.2307L39.7102 52.2316L39.7368 52.2078L40.3224 52.94L40.9844 53.6036L40.3293 52.9485L40.3437 52.9666L40.9337 53.6508C40.3768 54.1311 39.7769 54.5695 39.1509 54.9537ZM40.3213 52.9402L40.3438 52.9663L40.3213 52.9402ZM42.4012 52.1786L40.9769 50.959C41.3903 50.4763 41.7672 49.957 42.0971 49.4153L42.8933 49.8995L42.1657 49.3175L42.8933 49.8995L43.7369 50.3213L43.6942 50.3882L43.6984 50.3908C43.3163 51.0181 42.8799 51.6196 42.4012 52.1786ZM44.6423 48.5367L42.9113 47.8158C43.1552 47.2303 43.3527 46.6202 43.4983 46.0026L43.5019 46.0035L43.5216 45.9201L44.4109 46.2166L45.3387 46.3503L44.4172 46.2187L44.4239 46.221L45.3231 46.433C45.1543 47.1496 44.9252 47.8575 44.6423 48.5367ZM44.4103 46.2177L44.4242 46.221L44.4103 46.2177ZM45.6451 44.3788L43.7759 44.2302C43.8009 43.9158 43.8137 43.596 43.8137 43.2792C43.8137 42.9605 43.8009 42.6385 43.7756 42.3218L44.7101 42.247H44.7014L45.6381 42.1132L45.6423 42.1723L45.6447 42.1722C45.6741 42.5385 45.6889 42.911 45.6888 43.2795C45.6886 43.6453 45.674 44.0153 45.6451 44.3788ZM43.4968 40.5493C43.3509 39.9325 43.1532 39.3227 42.9092 38.7371L43.7744 38.3763L43.7737 38.3767L43.7752 38.3761L43.7664 38.379L44.6126 37.956L44.6377 38.0166L44.6398 38.0157C44.9231 38.6951 45.1524 39.4023 45.3216 40.1181L43.4968 40.5493ZM42.0947 37.1388C41.7647 36.5976 41.3877 36.0785 40.9741 35.5958L40.9749 35.5951L40.9531 35.5706L41.6852 34.9848L42.3488 34.323L41.6937 34.9781L41.7121 34.9633L42.3977 34.3757C42.8767 34.9346 43.3133 35.5358 43.6956 36.1628L42.0947 37.1388ZM41.6936 34.9782L41.6863 34.9855L41.7119 34.9636L41.6936 34.9782ZM39.7061 34.3247C39.2246 33.91 38.7063 33.5316 38.1658 33.2001L38.6557 32.4012L38.6523 32.4053L39.0742 31.5617L39.1433 31.606L39.1459 31.6017C39.7722 31.9857 40.3724 32.4238 40.9298 32.9041L39.7061 34.3247ZM36.5691 32.3813C35.9841 32.1357 35.3747 31.9365 34.7578 31.789L35.1938 29.9653C35.9093 30.1365 36.6161 30.3676 37.2947 30.6525L36.5691 32.3813Z" fill="#FFD400"/>
<path d="M32 56.9681V55.0931C32.3282 55.0931 32.6595 55.0795 32.9847 55.0527L33.1387 56.9214C32.7626 56.9524 32.3795 56.9681 32 56.9681Z" fill="#FFD400"/>
</svg>
